<svg width="17" height="17" viewBox="0 0 17 17" fill="none" xmlns="http://www.w3.org/2000/svg">
<path d="M7.25001 15.1667C7.25001 15.4982 7.38171 15.8161 7.61613 16.0506C7.85055 16.285 8.16849 16.4167 8.50001 16.4167C8.83153 16.4167 9.14947 16.285 9.38389 16.0506C9.61831 15.8161 9.75001 15.4982 9.75001 15.1667V9.75001H15.1667C15.4982 9.75001 15.8161 9.61831 16.0506 9.38389C16.285 9.14947 16.4167 8.83153 16.4167 8.50001C16.4167 8.16849 16.285 7.85055 16.0506 7.61613C15.8161 7.38171 15.4982 7.25001 15.1667 7.25001H9.75001V1.83334C9.75001 1.50182 9.61831 1.18388 9.38389 0.94946C9.14947 0.71504 8.83153 0.583344 8.50001 0.583344C8.16849 0.583344 7.85055 0.71504 7.61613 0.94946C7.38171 1.18388 7.25001 1.50182 7.25001 1.83334V7.25001H1.83334C1.50182 7.25001 1.18388 7.38171 0.94946 7.61613C0.71504 7.85055 0.583344 8.16849 0.583344 8.50001C0.583344 8.83153 0.71504 9.14947 0.94946 9.38389C1.18388 9.61831 1.50182 9.75001 1.83334 9.75001H7.25001V15.1667Z" fill="white"/>
</svg>
